<svg width="218" height="31" viewBox="0 0 218 31" fill="none" xmlns="http://www.w3.org/2000/svg">
<path d="M14.8032 26.6714V21.2441H4.54199C3.94141 21.2441 3.37744 21.1343 2.8501 20.9146C2.32275 20.6802 1.86133 20.3726 1.46582 19.9917C1.08496 19.5962 0.777344 19.1348 0.542969 18.6074C0.323242 18.0801 0.213379 17.5161 0.213379 16.9155V11.9277C0.213379 11.3271 0.323242 10.7632 0.542969 10.2358C0.777344 9.7085 1.08496 9.25439 1.46582 8.87354C1.86133 8.47803 2.32275 8.17041 2.8501 7.95068C3.37744 7.71631 3.94141 7.59912 4.54199 7.59912H18.231V11.9277H4.54199V16.9155H14.8032C15.4038 16.9155 15.9604 17.0327 16.4731 17.2671C17.0005 17.4868 17.4619 17.7944 17.8574 18.1899C18.2529 18.5708 18.5605 19.0249 18.7803 19.5522C19.0146 20.0796 19.1318 20.6436 19.1318 21.2441V26.6714C19.1318 27.272 19.0146 27.8359 18.7803 28.3633C18.5605 28.8906 18.2529 29.3521 17.8574 29.7476C17.4619 30.1284 17.0005 30.436 16.4731 30.6704C15.9604 30.8901 15.4038 31 14.8032 31H0.213379V26.6714H14.8032ZM24.5371 7.59912H30.25V0.39209H34.5786V7.59912H42.269V11.9277H34.5786V26.6714H42.269V31H34.5786C33.9927 31 33.436 30.8901 32.9087 30.6704C32.3813 30.436 31.9199 30.1284 31.5244 29.7476C31.1289 29.3521 30.814 28.8906 30.5796 28.3633C30.3599 27.8359 30.25 27.272 30.25 26.6714V11.9277H24.5371V7.59912ZM49.498 20.7827C49.498 20.1821 49.6079 19.6255 49.8276 19.1128C50.062 18.5854 50.3696 18.124 50.7505 17.7285C51.146 17.333 51.6074 17.0254 52.1348 16.8057C52.6621 16.5713 53.2188 16.4541 53.8047 16.4541H64.9668V11.9277H50.8384V7.59912H64.9668C65.5674 7.59912 66.1313 7.71631 66.6587 7.95068C67.186 8.17041 67.6401 8.47803 68.021 8.87354C68.4165 9.25439 68.7241 9.7085 68.9438 10.2358C69.1782 10.7632 69.2954 11.3271 69.2954 11.9277V31H64.9668V27.0449C64.9229 27.5869 64.7764 28.0996 64.5273 28.583C64.2783 29.0664 63.9561 29.4912 63.5605 29.8574C63.1797 30.209 62.7402 30.4873 62.2422 30.6924C61.7441 30.8975 61.2168 31 60.6602 31H53.8047C53.2188 31 52.6621 30.8901 52.1348 30.6704C51.6074 30.436 51.146 30.1284 50.7505 29.7476C50.3696 29.3521 50.062 28.8906 49.8276 28.3633C49.6079 27.8359 49.498 27.272 49.498 26.6714V20.7827ZM53.8047 26.6714H64.9668V20.7827H53.8047V26.6714ZM80.8311 11.9277V31H76.5244V7.59912H80.8311V11.73C80.8604 11.1587 80.9922 10.624 81.2266 10.126C81.4609 9.61328 81.7686 9.17383 82.1494 8.80762C82.5449 8.42676 82.999 8.13379 83.5117 7.92871C84.0244 7.70898 84.5737 7.59912 85.1597 7.59912H89.752C90.3525 7.59912 90.9092 7.71631 91.4219 7.95068C91.9492 8.17041 92.4106 8.47803 92.8062 8.87354C93.2017 9.25439 93.5093 9.7085 93.729 10.2358C93.9634 10.7632 94.0806 11.3271 94.0806 11.9277V15.8828H89.752V11.9277H80.8311ZM117.811 31L110.252 7.59912H114.625L120.162 25.2432L125.326 7.59912H129.742L134.906 25.2432L140.443 7.59912H144.815L137.257 31H132.752L127.523 13.8174L122.315 31H117.811ZM149.342 20.7827C149.342 20.1821 149.452 19.6255 149.671 19.1128C149.906 18.5854 150.213 18.124 150.594 17.7285C150.99 17.333 151.451 17.0254 151.979 16.8057C152.506 16.5713 153.062 16.4541 153.648 16.4541H164.811V11.9277H150.682V7.59912H164.811C165.411 7.59912 165.975 7.71631 166.502 7.95068C167.03 8.17041 167.484 8.47803 167.865 8.87354C168.26 9.25439 168.568 9.7085 168.788 10.2358C169.022 10.7632 169.139 11.3271 169.139 11.9277V31H164.811V27.0449C164.767 27.5869 164.62 28.0996 164.371 28.583C164.122 29.0664 163.8 29.4912 163.404 29.8574C163.023 30.209 162.584 30.4873 162.086 30.6924C161.588 30.8975 161.061 31 160.504 31H153.648C153.062 31 152.506 30.8901 151.979 30.6704C151.451 30.436 150.99 30.1284 150.594 29.7476C150.213 29.3521 149.906 28.8906 149.671 28.3633C149.452 27.8359 149.342 27.272 149.342 26.6714V20.7827ZM153.648 26.6714H164.811V20.7827H153.648V26.6714ZM180.675 11.9277V31H176.368V7.59912H180.675V11.73C180.704 11.1587 180.836 10.624 181.07 10.126C181.305 9.61328 181.612 9.17383 181.993 8.80762C182.389 8.42676 182.843 8.13379 183.355 7.92871C183.868 7.70898 184.417 7.59912 185.003 7.59912H189.596C190.196 7.59912 190.753 7.71631 191.266 7.95068C191.793 8.17041 192.254 8.47803 192.65 8.87354C193.045 9.25439 193.353 9.7085 193.573 10.2358C193.807 10.7632 193.924 11.3271 193.924 11.9277V15.8828H189.596V11.9277H180.675ZM213.436 26.6714V21.2441H203.175C202.574 21.2441 202.01 21.1343 201.483 20.9146C200.956 20.6802 200.494 20.3726 200.099 19.9917C199.718 19.5962 199.41 19.1348 199.176 18.6074C198.956 18.0801 198.846 17.5161 198.846 16.9155V11.9277C198.846 11.3271 198.956 10.7632 199.176 10.2358C199.41 9.7085 199.718 9.25439 200.099 8.87354C200.494 8.47803 200.956 8.17041 201.483 7.95068C202.01 7.71631 202.574 7.59912 203.175 7.59912H216.864V11.9277H203.175V16.9155H213.436C214.037 16.9155 214.593 17.0327 215.106 17.2671C215.633 17.4868 216.095 17.7944 216.49 18.1899C216.886 18.5708 217.193 19.0249 217.413 19.5522C217.647 20.0796 217.765 20.6436 217.765 21.2441V26.6714C217.765 27.272 217.647 27.8359 217.413 28.3633C217.193 28.8906 216.886 29.3521 216.49 29.7476C216.095 30.1284 215.633 30.436 215.106 30.6704C214.593 30.8901 214.037 31 213.436 31H198.846V26.6714H213.436Z" fill="#1F86FF"/>
</svg>
